<?xml version="1.0" encoding="UTF-8"?>
<svg id="flowers" xmlns="http://www.w3.org/2000/svg" viewBox="0 0 316.11 477.95">
  <defs>
    <style>
      .cls-1 {
        fill: #4eb3a3;
      }

      .cls-2 {
        fill: #005825;
      }

      .cls-3 {
        fill: #ffbe88;
      }

      .cls-4 {
        fill: #ffa6a4;
      }

      .cls-5 {
        fill: #8ace57;
      }

      .cls-6 {
        fill: #5fb8ff;
      }

      .cls-7 {
        fill: #ffaf6b;
      }

      .cls-8 {
        fill: #2c3093;
      }
    </style>
  </defs>
  <path class="cls-5" d="M132.18,52.41S126.41,0,168.61,0s21.21,49.97,21.21,49.97c0,0,32.09-28.87,48.31-9.33,16.21,19.54-18.21,47.31-18.21,47.31,0,0,62.85,18.21,33.31,57.08,0,0-18.66,22.65-55.52,7.11-20.66-9.33-27.32-14.88-27.32-14.88,0,0-18.88,57.97-58.41,55.97-39.53-2-36.65-34.2-25.54-55.97,11.1-21.77,20.43-26.65,20.43-26.65,0,0-34.2-4.22-33.09-33.76,1.11-29.54,29.76-29.76,58.41-24.43Z"/>
  <circle class="cls-2" cx="164.61" cy="89.51" r="25.54"/>
  <path class="cls-7" d="M223.35,260.12s35.5-49.7,63.39-16.73c19.27,26.88-6.09,43.1-13.69,45.64,17.24,2.54,53.75,8.62,40.06,32.96s-41.58,16.73-41.58,16.73c0,0,30.93,36.51,11.66,54.26-19.27,17.75-30.09,17.24-54.6.34-12.68-14.37-25.69-43.61-25.69-43.61,0,0-56.63,44.29-91.62-1.35s47.41-56.29,57.56-57.56c-8.37-9.13-23.33-31.69-5.07-49.19,18.26-17.49,40.06-7.61,59.58,18.51Z"/>
  <circle class="cls-3" cx="226.56" cy="307.96" r="28.06"/>
  <path class="cls-6" d="M98.9,174.62s-15.65-29.42,11.27-48.2c31.22-9.16,45.07,22.3,47.65,34.98,0,0,47.89-39.67,64.79-1.17,16.9,38.5-29.34,41.55-29.34,41.55,0,0,63.85,4.23,50.94,27s-40.61,32.16-62.21,16.9c0,0,23.47,58.22-22.3,58.22s-42.96-65.03-42.96-65.03c0,0-77.7,26.29-81.93-34.27,6.57-45.78,64.09-29.97,64.09-29.97Z"/>
  <circle class="cls-4" cx="147.41" cy="205.29" r="25.04"/>
  <path class="cls-1" d="M64.09,348.69s-15.65-29.42,11.27-48.2c31.22-9.16,45.07,22.3,47.65,34.98,0,0,47.89-39.67,64.79-1.17s-29.34,41.55-29.34,41.55c0,0,63.85,4.23,50.94,27s-40.61,32.16-62.21,16.9c0,0,23.47,58.22-22.3,58.22s-42.96-65.03-42.96-65.03c0,0-77.7,26.29-81.93-34.27,6.57-45.78,64.09-29.97,64.09-29.97Z"/>
  <circle class="cls-8" cx="112.6" cy="379.36" r="25.04"/>
</svg>