<?xml version="1.0" encoding="UTF-8"?>
<svg id="Layer_1" data-name="Layer 1" xmlns="http://www.w3.org/2000/svg" viewBox="0 0 612 792">
  <defs>
    <style>
      .cls-1 {
        stroke-linejoin: round;
      }

      .cls-1, .cls-2 {
        fill: #f490bd;
        stroke: #000;
        stroke-width: 1.35px;
      }

      .cls-2 {
        stroke-miterlimit: 10;
      }
    </style>
  </defs>
  <path class="cls-2" d="M319.99,207.67l.2-.02c.58,1.93,1.01,4.48,1.3,7.63.47,6.58-.64,11.72-3.35,15.42-1.06,1.42-6.21,3.45-15.44,6.09-9.23,2.64-13.96,4.24-14.17,4.78-.13,1.47,2.65,15.06,8.33,40.78,1.14,5.2,1.95,10.42,2.44,15.68,1.1,11.96.43,21.96-2,30-3.05,10.09-8.39,15.35-16.04,15.79-12.39.74-21.35-2.34-26.89-9.25-4.19-5.18-6.9-13.74-8.13-25.69.1,1.05-.28-5.87-1.12-20.77l-1.34-25.32c-.2-7.93.02-14.84.67-20.74-.76.34-1.93.58-3.51.72-4.47.41-9.01.1-13.6-.93-6.23-1.41-10.63-3.92-13.22-7.53-3.65-5.1-5.69-10.01-6.13-14.74-.73-7.89,3.05-14.39,11.32-19.53,10.65-6.68,23.86-10.75,39.62-12.2,8.28-.76,17.02-.77,26.23-.03,4.48,1.18,11.28,3,20.38,5.48,7.71,3.13,12.52,7.92,14.44,14.37Z"/>
  <path class="cls-1" d="M294.49,249.05l.19.05c3.62-.84,7.28-.79,10.99.16,7.92,2.03,12.81,6.63,14.65,13.77,2.02,3.79,3.26,10.1,3.72,18.94.57,11.59.99,17.9,1.27,18.92,11.79-22.58,22.4-36.62,31.85-42.1,3.94-.49,7.89-.22,11.85.79,6.01,1.54,10.39,4.37,13.15,8.48,5.63,6.21,7.13,14.43,4.5,24.65-3.87,10.32-10.07,20.92-18.58,31.81-5.03,6.34-13.11,15.51-24.22,27.5-1.41,5.5-3.56,13.59-6.44,24.3-2.69,9.39-6.17,16.88-10.46,22.45-5.26,6.69-12.13,10.37-20.62,11.06-2.11-.27-3.61-.52-4.51-.75-10.23-2.62-16.29-8.47-18.18-17.54-.48-5.57.35-12.51,2.48-20.82,1.02-3.96,1.97-7.67,2.85-11.12,1.31-4.57,2.19-8.02,2.66-10.35-11.65-41.13-15.54-69.24-11.67-84.32,2.3-8.95,7.13-14.24,14.5-15.9Z"/>
  <path class="cls-2" d="M319.4,420.71l-.19.04c1.01,11.4-1.44,19.64-7.34,24.71-8.46,5.78-17.46,9.71-27,11.8-27.33,6-44.22-5.76-50.7-35.28l-2.5-11.41c-.31-1.42-.73-3.62-1.25-6.62-.38-2.35-.68-4.04-.91-5.07-6.36-25.89-9.83-46.95-10.41-63.17.88-7.08,2.56-12.18,5.05-15.29,2.49-3.11,6.84-5.62,13.04-7.52,1.39-.44,2.92-.84,4.6-1.21,5.54-1.22,9.79-.93,12.75.85,1.26.81,3.85,3.41,7.79,7.81,4.06,8.03,7.53,18.61,10.41,31.76,1.78,8.12,3.79,20.99,6.04,38.6,1.6,12.21,2.87,18.62,3.81,19.22,4.36-3.52,10.15-6.08,17.37-7.66,1.8-.4,3.13-.49,3.99-.27,4.02.47,7.43,2.76,10.22,6.88,1.81,2.71,3.58,6.78,5.31,12.21l-.08-.39Z"/>
  <path class="cls-2" d="M401.81,430.44c2.64,9.34-3.86,18.84-12.37,23.05-3.31,1.7-7.04,2.56-10.72,2.57-2.21.07-4.68-.15-6.64.44-4.73,1.57-5.79,8.37-4.76,12.76,1.96,6.75,11.37,5.32,16.42,9.7,9.01,7.18,4.64,19.68-2.58,27.1-6.87,7.29-16.54,12.31-26.32,13.8-10.4,1.42-22.34-.51-31.25-5.94-5.19-3.33-8.98-8.93-11.59-14.4-6.21-15.26-2.11-44.29.68-64.97,2.69-13.59,9.92-63.26,24.07-68.97,2.43-.94,5.18-.91,7.82-.88,5.02.12,12.57.4,17.86.56,9.71.46,18.8-.62,28.54,1.81,12.57,2.62,16.18,12.04,10.59,22.66-5.13,8.88-13.88,9.1-23.04,9.87-4.29.58-6.54,3.82-7.49,7.92-.71,3.08-1.67,6.74-.16,9.62,2.06,3.36,8.31,1.63,13.13,1.72,7.37-.08,15.5,4.06,17.75,11.35l.07.24Z"/>
  <path class="cls-1" d="M358.73,568.29l-.19.04c-.93,4.27-3.07,8.88-6.41,13.83-4.4,6.27-9.36,10.37-14.88,12.29-10.68,3.63-24.39-4.97-41.14-25.81,1.13,3.22,1.97,6.04,2.52,8.46,1.78,7.89,1.26,14.56-1.57,20.01-5,5.41-10.46,8.78-16.38,10.12-2.58.58-4.95.85-7.13.8-8.03-.21-13.54-1.53-16.52-3.96-3.96-3.15-7.07-9.74-9.33-19.75l-1.74-7.71c-.47-.3-2.94-11.82-7.4-34.56-5-25.72-7.91-45.51-8.74-59.36-.5-10.01,4.83-18.16,15.98-24.46,5.29-2.95,16.04-7.13,32.27-12.55,19.84-3.8,34.84-.29,44.99,10.54,8.35,11.24,13.64,22.08,15.87,32.54,2.28,10.72,1.41,20.31-2.63,28.8-.64,1.36-3.54,5.6-8.69,12.72,18.09,12.42,28.33,23.91,30.71,34.46.17.77.3,1.96.4,3.56ZM283.19,490.79l-.19.04c-.83-.08-1.51-.07-2.02.05-.52.12-2.31,1.47-5.37,4.06-.4.63.15,3.96,1.65,9.98,1.72,7.05,3.3,13.73,4.73,20.04,4.51-2.78,8.12-6.13,10.82-10.05,2.7-3.92,3.66-7.62,2.87-11.1-1.08-4.76-5.23-9.1-12.48-13.01Z"/>
  <path d="M302.41,591.39c-.05,5.81-3.16,11.41-8.08,14.5-.73.46-.06,1.62.68,1.16,5.32-3.35,8.7-9.38,8.75-15.67,0-.87-1.34-.87-1.35,0h0Z"/>
  <path d="M342,482.74c1.77,7.6,2.7,15.38,2.76,23.19,0,.87,1.35.87,1.35,0-.06-7.92-1.01-15.83-2.81-23.54-.2-.84-1.49-.49-1.3.36h0Z"/>
  <path d="M223.63,477.97c.26-5.59,2.72-10.94,6.77-14.79.63-.6-.32-1.55-.95-.95-4.31,4.1-6.89,9.81-7.17,15.74-.04.87,1.31.86,1.35,0h0Z"/>
  <path d="M296.39,495.54c2.29,3.26,3.35,7.22,2.99,11.19-.08.86,1.27.86,1.35,0,.38-4.18-.76-8.43-3.17-11.87-.49-.7-1.66-.03-1.16.68h0Z"/>
  <path d="M217.12,317.84c-4.54,6.57-6.38,14.77-5.19,22.66.13.85,1.43.49,1.3-.36-1.13-7.53.74-15.37,5.06-21.62.49-.71-.67-1.39-1.16-.68h0Z"/>
  <path d="M293.81,400.8c6.32-2.23,13.41-2.06,19.59.57.79.34,1.47-.82.68-1.16-6.51-2.77-13.94-3.06-20.62-.71-.81.29-.46,1.59.36,1.3h0Z"/>
  <path d="M401.87,394.48c-2.5,2.92-6.12,4.78-9.96,5.04-.86.06-.87,1.4,0,1.35,4.19-.28,8.18-2.24,10.92-5.43.56-.65-.39-1.61-.95-.95h0Z"/>
  <path d="M391.29,481.53c1.77,3.43,2.67,7.24,2.63,11.09,0,.87,1.34.87,1.35,0,.03-4.1-.94-8.13-2.82-11.77-.4-.77-1.56-.09-1.16.68h0Z"/>
  <path d="M308.82,437.75c.71-5.32,1.42-10.65,2.13-15.97.11-.86-1.23-.85-1.35,0-.71,5.32-1.42,10.65-2.13,15.97-.11.86,1.23.85,1.35,0h0Z"/>
  <path d="M283.13,362.31c-.98,3.82-1.96,7.63-2.94,11.45-.22.84,1.08,1.2,1.3.36.98-3.82,1.96-7.63,2.94-11.45.22-.84-1.08-1.2-1.3-.36h0Z"/>
  <path d="M362.78,339.44c-5.08,4.77-10.17,9.53-15.25,14.3-.63.59.32,1.54.95.95,5.08-4.77,10.17-9.53,15.25-14.3.63-.59-.32-1.54-.95-.95h0Z"/>
  <path d="M318.73,254.79c3.03,4.78,5.09,10.11,6.08,15.68.15.85,1.45.49,1.3-.36-1.01-5.68-3.13-11.13-6.21-16-.46-.73-1.63-.06-1.16.68h0Z"/>
  <path d="M221.32,246.68c4.16,1.77,8.68,2.31,13.14,1.55.85-.15.49-1.44-.36-1.3-4.06.7-8.31.2-12.1-1.41-.79-.34-1.47.82-.68,1.16h0Z"/>
  <path d="M324.31,228.76c-3.42,5.51-8.88,9.61-15.11,11.38-.83.24-.48,1.54.36,1.3,6.57-1.87,12.31-6.2,15.92-12,.46-.74-.71-1.41-1.16-.68h0Z"/>
  <path d="M256.92,184.89c7.99-.08,15.98-.16,23.96-.25.87,0,.87-1.35,0-1.35-7.99.08-15.98.16-23.96.25-.87,0-.87,1.35,0,1.35h0Z"/>
  <path d="M241.31,304.72c0,2,.33,3.99.97,5.89.12.34.46.57.83.47.34-.09.59-.48.47-.83-.61-1.79-.92-3.64-.92-5.53,0-.87-1.35-.87-1.35,0h0Z"/>
  <path d="M237.78,448.22c3.22,3.14,6.82,5.87,10.71,8.12.75.43,1.43-.73.68-1.16-3.8-2.19-7.3-4.84-10.44-7.9-.62-.61-1.57.35-.95.95h0Z"/>
</svg>